<mxfile host="app.diagrams.net" modified="2023-03-28T10:56:56.798Z" agent="Mozilla/5.0 (Windows NT 10.0; Win64; x64) AppleWebKit/537.36 (KHTML, like Gecko) Chrome/111.0.0.0 Safari/537.36" etag="t_Qc2QMxCaYj2N1Htqss" version="21.1.1" type="device">
  <diagram name="Página-1" id="qaSdFbt0vFk1w8-0QRgm">
    <mxGraphModel dx="548" dy="510" grid="1" gridSize="10" guides="1" tooltips="1" connect="1" arrows="1" fold="1" page="1" pageScale="1" pageWidth="827" pageHeight="1169" math="0" shadow="0">
      <root>
        <mxCell id="0" />
        <mxCell id="1" parent="0" />
        <mxCell id="K-Ovf4jEbWBJWLc7WqOu-1" value="" style="shape=image;html=1;verticalAlign=top;verticalLabelPosition=bottom;labelBackgroundColor=#ffffff;imageAspect=0;aspect=fixed;image=https://cdn4.iconfinder.com/data/icons/ionicons/512/icon-leaf-128.png" vertex="1" parent="1">
          <mxGeometry x="400" y="70" width="120" height="120" as="geometry" />
        </mxCell>
        <mxCell id="K-Ovf4jEbWBJWLc7WqOu-2" value="" style="sketch=0;outlineConnect=0;fontColor=#232F3E;gradientColor=none;fillColor=#232F3D;strokeColor=none;dashed=0;verticalLabelPosition=bottom;verticalAlign=top;align=center;html=1;fontSize=12;fontStyle=0;aspect=fixed;pointerEvents=1;shape=mxgraph.aws4.user;" vertex="1" parent="1">
          <mxGeometry x="40" y="80" width="110" height="110" as="geometry" />
        </mxCell>
        <mxCell id="K-Ovf4jEbWBJWLc7WqOu-3" value="" style="sketch=0;pointerEvents=1;shadow=0;dashed=0;html=1;strokeColor=none;fillColor=#505050;labelPosition=center;verticalLabelPosition=bottom;verticalAlign=top;outlineConnect=0;align=center;shape=mxgraph.office.devices.cell_phone_android_proportional;" vertex="1" parent="1">
          <mxGeometry x="250" y="71" width="40" height="75.25" as="geometry" />
        </mxCell>
        <mxCell id="K-Ovf4jEbWBJWLc7WqOu-4" value="" style="shape=flexArrow;endArrow=classic;html=1;rounded=0;" edge="1" parent="1">
          <mxGeometry width="50" height="50" relative="1" as="geometry">
            <mxPoint x="150" y="120" as="sourcePoint" />
            <mxPoint x="240" y="120" as="targetPoint" />
          </mxGeometry>
        </mxCell>
        <mxCell id="K-Ovf4jEbWBJWLc7WqOu-5" value="&lt;font style=&quot;font-size: 8px;&quot;&gt;Faz o pedido&lt;/font&gt;" style="edgeLabel;html=1;align=center;verticalAlign=middle;resizable=0;points=[];fontFamily=Georgia;" vertex="1" connectable="0" parent="K-Ovf4jEbWBJWLc7WqOu-4">
          <mxGeometry x="-0.1646" y="-1" relative="1" as="geometry">
            <mxPoint x="2" y="16" as="offset" />
          </mxGeometry>
        </mxCell>
        <mxCell id="K-Ovf4jEbWBJWLc7WqOu-6" value="&lt;font face=&quot;Comic Sans MS&quot;&gt;GreenerGrain&lt;/font&gt;" style="text;html=1;align=center;verticalAlign=middle;resizable=0;points=[];autosize=1;strokeColor=none;fillColor=none;fontFamily=Helvetica;" vertex="1" parent="1">
          <mxGeometry x="400" y="60" width="100" height="30" as="geometry" />
        </mxCell>
        <mxCell id="K-Ovf4jEbWBJWLc7WqOu-7" value="" style="shape=flexArrow;endArrow=classic;html=1;rounded=0;" edge="1" parent="1">
          <mxGeometry width="50" height="50" relative="1" as="geometry">
            <mxPoint x="300" y="91" as="sourcePoint" />
            <mxPoint x="400" y="90" as="targetPoint" />
          </mxGeometry>
        </mxCell>
        <mxCell id="K-Ovf4jEbWBJWLc7WqOu-8" value="&lt;font style=&quot;font-size: 8px;&quot;&gt;Faz a requisição &lt;br&gt;à maquina&amp;nbsp;&lt;/font&gt;" style="edgeLabel;html=1;align=center;verticalAlign=middle;resizable=0;points=[];fontFamily=Georgia;" vertex="1" connectable="0" parent="K-Ovf4jEbWBJWLc7WqOu-7">
          <mxGeometry x="-0.2677" y="-3" relative="1" as="geometry">
            <mxPoint x="4" y="-24" as="offset" />
          </mxGeometry>
        </mxCell>
        <mxCell id="K-Ovf4jEbWBJWLc7WqOu-9" value="" style="shape=flexArrow;endArrow=classic;html=1;rounded=0;fontSize=8;" edge="1" parent="1">
          <mxGeometry width="50" height="50" relative="1" as="geometry">
            <mxPoint x="400" y="120" as="sourcePoint" />
            <mxPoint x="300" y="120" as="targetPoint" />
            <Array as="points">
              <mxPoint x="350" y="120" />
            </Array>
          </mxGeometry>
        </mxCell>
        <mxCell id="K-Ovf4jEbWBJWLc7WqOu-10" value="&lt;font style=&quot;font-size: 8px;&quot;&gt;Atualiza estados&lt;br&gt;&amp;nbsp;e estoque&lt;/font&gt;" style="edgeLabel;html=1;align=center;verticalAlign=middle;resizable=0;points=[];fontFamily=Georgia;" vertex="1" connectable="0" parent="K-Ovf4jEbWBJWLc7WqOu-9">
          <mxGeometry x="0.3462" y="4" relative="1" as="geometry">
            <mxPoint x="28" y="16" as="offset" />
          </mxGeometry>
        </mxCell>
        <mxCell id="K-Ovf4jEbWBJWLc7WqOu-11" value="" style="shape=flexArrow;endArrow=classic;html=1;rounded=0;" edge="1" parent="1">
          <mxGeometry width="50" height="50" relative="1" as="geometry">
            <mxPoint x="400" y="170" as="sourcePoint" />
            <mxPoint x="150" y="170" as="targetPoint" />
          </mxGeometry>
        </mxCell>
        <mxCell id="K-Ovf4jEbWBJWLc7WqOu-12" value="&lt;font style=&quot;font-size: 8px;&quot;&gt;Entrega o pedido do cliente&lt;/font&gt;" style="edgeLabel;html=1;align=center;verticalAlign=middle;resizable=0;points=[];fontFamily=Georgia;" vertex="1" connectable="0" parent="K-Ovf4jEbWBJWLc7WqOu-11">
          <mxGeometry x="-0.4781" y="-1" relative="1" as="geometry">
            <mxPoint x="-54" y="21" as="offset" />
          </mxGeometry>
        </mxCell>
        <mxCell id="K-Ovf4jEbWBJWLc7WqOu-13" value="" style="shape=flexArrow;endArrow=classic;html=1;rounded=0;" edge="1" parent="1">
          <mxGeometry width="50" height="50" relative="1" as="geometry">
            <mxPoint x="240" y="90" as="sourcePoint" />
            <mxPoint x="150" y="90" as="targetPoint" />
          </mxGeometry>
        </mxCell>
        <mxCell id="K-Ovf4jEbWBJWLc7WqOu-15" value="&lt;span style=&quot;font-size: 8px;&quot;&gt;Informações &lt;br&gt;dos produtos&lt;/span&gt;" style="edgeLabel;html=1;align=center;verticalAlign=middle;resizable=0;points=[];fontFamily=Georgia;" vertex="1" connectable="0" parent="K-Ovf4jEbWBJWLc7WqOu-13">
          <mxGeometry x="-0.3778" y="1" relative="1" as="geometry">
            <mxPoint x="-12" y="-21" as="offset" />
          </mxGeometry>
        </mxCell>
      </root>
    </mxGraphModel>
  </diagram>
</mxfile>
